<?xml version="1.0" encoding="UTF-8" standalone="no"?>
<!-- Created with Inkscape (http://www.inkscape.org/) -->

<svg
   xmlns:dc="http://purl.org/dc/elements/1.1/"
   xmlns:cc="http://creativecommons.org/ns#"
   xmlns:rdf="http://www.w3.org/1999/02/22-rdf-syntax-ns#"
   xmlns:svg="http://www.w3.org/2000/svg"
   xmlns="http://www.w3.org/2000/svg"
   xmlns:sodipodi="http://sodipodi.sourceforge.net/DTD/sodipodi-0.dtd"
   xmlns:inkscape="http://www.inkscape.org/namespaces/inkscape"
   id="svg2"
   version="1.1"
   inkscape:version="0.91 r13725"
   xml:space="preserve"
   width="630"
   height="360"
   viewBox="0 0 630 360"
   sodipodi:docname="masses.svg"><sodipodi:namedview
     pagecolor="#ffffff"
     bordercolor="#666666"
     borderopacity="1"
     objecttolerance="10"
     gridtolerance="10"
     guidetolerance="10"
     inkscape:pageopacity="0"
     inkscape:pageshadow="2"
     inkscape:window-width="1920"
     inkscape:window-height="1026"
     id="namedview4"
     showgrid="false"
     inkscape:zoom="1.1897352"
     inkscape:cx="366.60956"
     inkscape:cy="157.89845"
     inkscape:window-x="0"
     inkscape:window-y="27"
     inkscape:window-maximized="1"
     inkscape:current-layer="g10"
     showguides="true"
     inkscape:guide-bbox="true"><sodipodi:guide
       id="guide4362"
       orientation="0,1"
       position="399.39623,357.79246" /><sodipodi:guide
       id="guide4364"
       orientation="0,1"
       position="114.31115,0.84052317" /><sodipodi:guide
       id="guide4366"
       orientation="1,0"
       position="0.84052317,247.11381" /><sodipodi:guide
       id="guide4368"
       orientation="1,0"
       position="631.2329,186.59614" /></sodipodi:namedview><metadata
     id="metadata8"><rdf:RDF><cc:Work
         rdf:about=""><dc:format>image/svg+xml</dc:format><dc:type
           rdf:resource="http://purl.org/dc/dcmitype/StillImage" /><dc:title /></cc:Work></rdf:RDF></metadata><defs
     id="defs6"><clipPath
       id="clipPath20"
       clipPathUnits="userSpaceOnUse"><path
         inkscape:connector-curvature="0"
         id="path22"
         d="m 22.5,14.571429 475.5,0 0,266.571431 -475.5,0 0,-266.571431 z" /></clipPath><clipPath
       id="clipPath30"
       clipPathUnits="userSpaceOnUse"><path
         inkscape:connector-curvature="0"
         id="path32"
         d="m 22.5,14.571429 475.5,0 0,266.571431 -475.5,0 0,-266.571431 z" /></clipPath><clipPath
       id="clipPath40"
       clipPathUnits="userSpaceOnUse"><path
         inkscape:connector-curvature="0"
         id="path42"
         d="m 22.5,14.571429 475.5,0 0,266.571431 -475.5,0 0,-266.571431 z" /></clipPath><clipPath
       id="clipPath50"
       clipPathUnits="userSpaceOnUse"><path
         inkscape:connector-curvature="0"
         id="path52"
         d="m 22.5,14.571429 475.5,0 0,266.571431 -475.5,0 0,-266.571431 z" /></clipPath><clipPath
       id="clipPath60"
       clipPathUnits="userSpaceOnUse"><path
         inkscape:connector-curvature="0"
         id="path62"
         d="m 22.5,14.571429 475.5,0 0,266.571431 -475.5,0 0,-266.571431 z" /></clipPath><clipPath
       id="clipPath70"
       clipPathUnits="userSpaceOnUse"><path
         inkscape:connector-curvature="0"
         id="path72"
         d="m 22.5,14.571429 475.5,0 0,266.571431 -475.5,0 0,-266.571431 z" /></clipPath><clipPath
       id="clipPath80"
       clipPathUnits="userSpaceOnUse"><path
         inkscape:connector-curvature="0"
         id="path82"
         d="m 22.5,14.571429 475.5,0 0,266.571431 -475.5,0 0,-266.571431 z" /></clipPath><clipPath
       id="clipPath90"
       clipPathUnits="userSpaceOnUse"><path
         inkscape:connector-curvature="0"
         id="path92"
         d="m 22.5,14.571429 475.5,0 0,266.571431 -475.5,0 0,-266.571431 z" /></clipPath><clipPath
       id="clipPath100"
       clipPathUnits="userSpaceOnUse"><path
         inkscape:connector-curvature="0"
         id="path102"
         d="m 22.5,14.571429 475.5,0 0,266.571431 -475.5,0 0,-266.571431 z" /></clipPath><clipPath
       id="clipPath120"
       clipPathUnits="userSpaceOnUse"><path
         inkscape:connector-curvature="0"
         id="path122"
         d="m 22.5,14.571429 475.5,0 0,266.571431 -475.5,0 0,-266.571431 z" /></clipPath><clipPath
       id="clipPath140"
       clipPathUnits="userSpaceOnUse"><path
         inkscape:connector-curvature="0"
         id="path142"
         d="m 22.5,14.571429 475.5,0 0,266.571431 -475.5,0 0,-266.571431 z" /></clipPath><clipPath
       id="clipPath160"
       clipPathUnits="userSpaceOnUse"><path
         inkscape:connector-curvature="0"
         id="path162"
         d="m 22.5,14.571429 475.5,0 0,266.571431 -475.5,0 0,-266.571431 z" /></clipPath><clipPath
       id="clipPath180"
       clipPathUnits="userSpaceOnUse"><path
         inkscape:connector-curvature="0"
         id="path182"
         d="m 22.5,14.571429 475.5,0 0,266.571431 -475.5,0 0,-266.571431 z" /></clipPath><clipPath
       id="clipPath200"
       clipPathUnits="userSpaceOnUse"><path
         inkscape:connector-curvature="0"
         id="path202"
         d="m 22.5,14.571429 475.5,0 0,266.571431 -475.5,0 0,-266.571431 z" /></clipPath><clipPath
       id="clipPath220"
       clipPathUnits="userSpaceOnUse"><path
         inkscape:connector-curvature="0"
         id="path222"
         d="m 22.5,14.571429 475.5,0 0,266.571431 -475.5,0 0,-266.571431 z" /></clipPath><clipPath
       id="clipPath240"
       clipPathUnits="userSpaceOnUse"><path
         inkscape:connector-curvature="0"
         id="path242"
         d="m 22.5,14.571429 475.5,0 0,266.571431 -475.5,0 0,-266.571431 z" /></clipPath><clipPath
       id="clipPath260"
       clipPathUnits="userSpaceOnUse"><path
         inkscape:connector-curvature="0"
         id="path262"
         d="m 22.5,14.571429 475.5,0 0,266.571431 -475.5,0 0,-266.571431 z" /></clipPath><clipPath
       id="clipPath280"
       clipPathUnits="userSpaceOnUse"><path
         inkscape:connector-curvature="0"
         id="path282"
         d="m 22.5,14.571429 475.5,0 0,266.571431 -475.5,0 0,-266.571431 z" /></clipPath><clipPath
       id="clipPath300"
       clipPathUnits="userSpaceOnUse"><path
         inkscape:connector-curvature="0"
         id="path302"
         d="m 22.5,14.571429 475.5,0 0,266.571431 -475.5,0 0,-266.571431 z" /></clipPath><clipPath
       id="clipPath320"
       clipPathUnits="userSpaceOnUse"><path
         inkscape:connector-curvature="0"
         id="path322"
         d="m 22.5,14.571429 475.5,0 0,266.571431 -475.5,0 0,-266.571431 z" /></clipPath><clipPath
       id="clipPath340"
       clipPathUnits="userSpaceOnUse"><path
         inkscape:connector-curvature="0"
         id="path342"
         d="m 22.5,14.571429 475.5,0 0,266.571431 -475.5,0 0,-266.571431 z" /></clipPath><clipPath
       id="clipPath360"
       clipPathUnits="userSpaceOnUse"><path
         inkscape:connector-curvature="0"
         id="path362"
         d="m 22.5,14.571429 475.5,0 0,266.571431 -475.5,0 0,-266.571431 z" /></clipPath><clipPath
       id="clipPath380"
       clipPathUnits="userSpaceOnUse"><path
         inkscape:connector-curvature="0"
         id="path382"
         d="m 22.5,14.571429 475.5,0 0,266.571431 -475.5,0 0,-266.571431 z" /></clipPath><clipPath
       id="clipPath400"
       clipPathUnits="userSpaceOnUse"><path
         inkscape:connector-curvature="0"
         id="path402"
         d="m 22.5,14.571429 475.5,0 0,266.571431 -475.5,0 0,-266.571431 z" /></clipPath></defs><g
     transform="matrix(1.25,0,0,-1.25,0,360)"
     inkscape:label="masses"
     inkscape:groupmode="layer"
     id="g10"><path
       inkscape:connector-curvature="0"
       id="path12"
       style="fill:#ffffff;fill-opacity:1;fill-rule:nonzero;stroke:none"
       d="M 0,0 504,0 504,288 0,288 0,0 Z" /><path
       inkscape:connector-curvature="0"
       id="path14"
       style="fill:#ffffff;fill-opacity:1;fill-rule:nonzero;stroke:none"
       d="m 22.5,14.571429 475.5,0 0,266.571431 -475.5,0 0,-266.571431 z" /><g
       style="opacity:0.41886792"
       id="g46" /><g
       transform="matrix(-1,0,0,-1,534.0023,296.04229)"
       style="opacity:1;fill:#d6d6d6;fill-opacity:1;stroke:#000000;stroke-opacity:1;stroke-width:0.8;stroke-miterlimit:5.28660011;stroke-dasharray:none"
       id="g56"><g
         style="fill:#d6d6d6;fill-opacity:1;stroke:#000000;stroke-opacity:1;stroke-width:0.8;stroke-miterlimit:5.28660011;stroke-dasharray:none"
         clip-path="url(#clipPath60)"
         id="g58"><path
           inkscape:connector-curvature="0"
           id="path64"
           style="fill:#d6d6d6;fill-opacity:1;fill-rule:nonzero;stroke:#000000;stroke-width:0.8;stroke-linecap:butt;stroke-linejoin:round;stroke-miterlimit:5.28660011;stroke-dasharray:none;stroke-opacity:1"
           d="m 70.844627,15.724386 c 1.989023,0 3.896849,0.790247 5.303301,2.196699 1.406451,1.406452 2.196699,3.314278 2.196699,5.303301 0,1.989023 -0.790248,3.896849 -2.196699,5.303301 -1.406452,1.406452 -3.314278,2.196699 -5.303301,2.196699 -1.989023,0 -3.896849,-0.790247 -5.303301,-2.196699 -1.406452,-1.406452 -2.196699,-3.314278 -2.196699,-5.303301 0,-1.989023 0.790247,-3.896849 2.196699,-5.303301 1.406452,-1.406452 3.314278,-2.196699 5.303301,-2.196699 z" /></g></g><g
       style="opacity:0.41886792"
       id="g76" /><g
       id="g106"><path
         inkscape:connector-curvature="0"
         id="path108"
         style="fill:none;stroke:#000000;stroke-width:1;stroke-linecap:square;stroke-linejoin:miter;stroke-miterlimit:10;stroke-dasharray:none;stroke-opacity:1"
         d="m 22.5,14.571429 475.5,0" /><path
         inkscape:connector-curvature="0"
         id="path110"
         style="fill:none;stroke:#000000;stroke-width:1;stroke-linecap:square;stroke-linejoin:miter;stroke-miterlimit:10;stroke-dasharray:none;stroke-opacity:1"
         d="m 22.5,14.571429 0,266.571431" /><path
         inkscape:connector-curvature="0"
         id="path112"
         style="fill:none;stroke:#000000;stroke-width:1;stroke-linecap:square;stroke-linejoin:miter;stroke-miterlimit:10;stroke-dasharray:none;stroke-opacity:1"
         d="m 22.5,281.14286 475.5,0" /><path
         inkscape:connector-curvature="0"
         id="path114"
         style="fill:none;stroke:#000000;stroke-width:1;stroke-linecap:square;stroke-linejoin:miter;stroke-miterlimit:10;stroke-dasharray:none;stroke-opacity:1"
         d="m 498,14.571429 0,266.571431" /></g><g
       id="g116"><g
         clip-path="url(#clipPath120)"
         id="g118"><path
           inkscape:connector-curvature="0"
           id="path124"
           style="fill:none;stroke:#000000;stroke-width:0.5;stroke-linecap:butt;stroke-linejoin:round;stroke-miterlimit:10;stroke-dasharray:1, 3;stroke-dashoffset:0;stroke-opacity:1"
           d="m 22.5,14.571429 0,266.571431" /></g></g><g
       id="g126"><path
         inkscape:connector-curvature="0"
         id="path128"
         style="fill:#000000;fill-opacity:1;fill-rule:nonzero;stroke:#000000;stroke-width:0.5;stroke-linecap:butt;stroke-linejoin:round;stroke-miterlimit:10;stroke-dasharray:none;stroke-opacity:1"
         d="m 22.5,14.571429 0,4" /><path
         inkscape:connector-curvature="0"
         id="path130"
         style="fill:#000000;fill-opacity:1;fill-rule:nonzero;stroke:#000000;stroke-width:0.5;stroke-linecap:butt;stroke-linejoin:round;stroke-miterlimit:10;stroke-dasharray:none;stroke-opacity:1"
         d="m 22.5,281.14286 0,-4" /></g><g
       id="g136"><g
         clip-path="url(#clipPath140)"
         id="g138"><path
           inkscape:connector-curvature="0"
           id="path144"
           style="fill:none;stroke:#000000;stroke-width:0.5;stroke-linecap:butt;stroke-linejoin:round;stroke-miterlimit:10;stroke-dasharray:1, 3;stroke-dashoffset:0;stroke-opacity:1"
           d="m 101.75,14.571429 0,266.571431" /></g></g><g
       id="g146"><path
         inkscape:connector-curvature="0"
         id="path148"
         style="fill:#000000;fill-opacity:1;fill-rule:nonzero;stroke:#000000;stroke-width:0.5;stroke-linecap:butt;stroke-linejoin:round;stroke-miterlimit:10;stroke-dasharray:none;stroke-opacity:1"
         d="m 101.75,14.571429 0,4" /><path
         inkscape:connector-curvature="0"
         id="path150"
         style="fill:#000000;fill-opacity:1;fill-rule:nonzero;stroke:#000000;stroke-width:0.5;stroke-linecap:butt;stroke-linejoin:round;stroke-miterlimit:10;stroke-dasharray:none;stroke-opacity:1"
         d="m 101.75,281.14286 0,-4" /></g><g
       id="g156"><g
         clip-path="url(#clipPath160)"
         id="g158"><path
           inkscape:connector-curvature="0"
           id="path164"
           style="fill:none;stroke:#000000;stroke-width:0.5;stroke-linecap:butt;stroke-linejoin:round;stroke-miterlimit:10;stroke-dasharray:1, 3;stroke-dashoffset:0;stroke-opacity:1"
           d="m 181,14.571429 0,266.571431" /></g></g><g
       id="g166"><path
         inkscape:connector-curvature="0"
         id="path168"
         style="fill:#000000;fill-opacity:1;fill-rule:nonzero;stroke:#000000;stroke-width:0.5;stroke-linecap:butt;stroke-linejoin:round;stroke-miterlimit:10;stroke-dasharray:none;stroke-opacity:1"
         d="m 181,14.571429 0,4" /><path
         inkscape:connector-curvature="0"
         id="path170"
         style="fill:#000000;fill-opacity:1;fill-rule:nonzero;stroke:#000000;stroke-width:0.5;stroke-linecap:butt;stroke-linejoin:round;stroke-miterlimit:10;stroke-dasharray:none;stroke-opacity:1"
         d="m 181,281.14286 0,-4" /></g><g
       id="g176"><g
         clip-path="url(#clipPath180)"
         id="g178"><path
           inkscape:connector-curvature="0"
           id="path184"
           style="fill:none;stroke:#000000;stroke-width:0.5;stroke-linecap:butt;stroke-linejoin:round;stroke-miterlimit:10;stroke-dasharray:1, 3;stroke-dashoffset:0;stroke-opacity:1"
           d="m 260.25,14.571429 0,266.571431" /></g></g><g
       id="g186"><path
         inkscape:connector-curvature="0"
         id="path188"
         style="fill:#000000;fill-opacity:1;fill-rule:nonzero;stroke:#000000;stroke-width:0.5;stroke-linecap:butt;stroke-linejoin:round;stroke-miterlimit:10;stroke-dasharray:none;stroke-opacity:1"
         d="m 260.25,14.571429 0,4" /><path
         inkscape:connector-curvature="0"
         id="path190"
         style="fill:#000000;fill-opacity:1;fill-rule:nonzero;stroke:#000000;stroke-width:0.5;stroke-linecap:butt;stroke-linejoin:round;stroke-miterlimit:10;stroke-dasharray:none;stroke-opacity:1"
         d="m 260.25,281.14286 0,-4" /></g><g
       id="g196"><g
         clip-path="url(#clipPath200)"
         id="g198"><path
           inkscape:connector-curvature="0"
           id="path204"
           style="fill:none;stroke:#000000;stroke-width:0.5;stroke-linecap:butt;stroke-linejoin:round;stroke-miterlimit:10;stroke-dasharray:1, 3;stroke-dashoffset:0;stroke-opacity:1"
           d="m 339.5,14.571429 0,266.571431" /></g></g><g
       id="g206"><path
         inkscape:connector-curvature="0"
         id="path208"
         style="fill:#000000;fill-opacity:1;fill-rule:nonzero;stroke:#000000;stroke-width:0.5;stroke-linecap:butt;stroke-linejoin:round;stroke-miterlimit:10;stroke-dasharray:none;stroke-opacity:1"
         d="m 339.5,14.571429 0,4" /><path
         inkscape:connector-curvature="0"
         id="path210"
         style="fill:#000000;fill-opacity:1;fill-rule:nonzero;stroke:#000000;stroke-width:0.5;stroke-linecap:butt;stroke-linejoin:round;stroke-miterlimit:10;stroke-dasharray:none;stroke-opacity:1"
         d="m 339.5,281.14286 0,-4" /></g><g
       id="g216"><g
         clip-path="url(#clipPath220)"
         id="g218"><path
           inkscape:connector-curvature="0"
           id="path224"
           style="fill:none;stroke:#000000;stroke-width:0.5;stroke-linecap:butt;stroke-linejoin:round;stroke-miterlimit:10;stroke-dasharray:1, 3;stroke-dashoffset:0;stroke-opacity:1"
           d="m 418.75,14.571429 0,266.571431" /></g></g><g
       id="g226"><path
         inkscape:connector-curvature="0"
         id="path228"
         style="fill:#000000;fill-opacity:1;fill-rule:nonzero;stroke:#000000;stroke-width:0.5;stroke-linecap:butt;stroke-linejoin:round;stroke-miterlimit:10;stroke-dasharray:none;stroke-opacity:1"
         d="m 418.75,14.571429 0,4" /><path
         inkscape:connector-curvature="0"
         id="path230"
         style="fill:#000000;fill-opacity:1;fill-rule:nonzero;stroke:#000000;stroke-width:0.5;stroke-linecap:butt;stroke-linejoin:round;stroke-miterlimit:10;stroke-dasharray:none;stroke-opacity:1"
         d="m 418.75,281.14286 0,-4" /></g><g
       id="g236"><g
         clip-path="url(#clipPath240)"
         id="g238"><path
           inkscape:connector-curvature="0"
           id="path244"
           style="fill:none;stroke:#000000;stroke-width:0.5;stroke-linecap:butt;stroke-linejoin:round;stroke-miterlimit:10;stroke-dasharray:1, 3;stroke-dashoffset:0;stroke-opacity:1"
           d="m 498,14.571429 0,266.571431" /></g></g><g
       id="g246"><path
         inkscape:connector-curvature="0"
         id="path248"
         style="fill:#000000;fill-opacity:1;fill-rule:nonzero;stroke:#000000;stroke-width:0.5;stroke-linecap:butt;stroke-linejoin:round;stroke-miterlimit:10;stroke-dasharray:none;stroke-opacity:1"
         d="m 498,14.571429 0,4" /><path
         inkscape:connector-curvature="0"
         id="path250"
         style="fill:#000000;fill-opacity:1;fill-rule:nonzero;stroke:#000000;stroke-width:0.5;stroke-linecap:butt;stroke-linejoin:round;stroke-miterlimit:10;stroke-dasharray:none;stroke-opacity:1"
         d="m 498,281.14286 0,-4" /></g><g
       id="g256"><g
         clip-path="url(#clipPath260)"
         id="g258"><path
           inkscape:connector-curvature="0"
           id="path264"
           style="fill:none;stroke:#000000;stroke-width:0.5;stroke-linecap:butt;stroke-linejoin:round;stroke-miterlimit:10;stroke-dasharray:1, 3;stroke-dashoffset:0;stroke-opacity:1"
           d="m 22.5,14.571429 475.5,0" /></g></g><g
       id="g266"><path
         inkscape:connector-curvature="0"
         id="path268"
         style="fill:#000000;fill-opacity:1;fill-rule:nonzero;stroke:#000000;stroke-width:0.5;stroke-linecap:butt;stroke-linejoin:round;stroke-miterlimit:10;stroke-dasharray:none;stroke-opacity:1"
         d="m 22.5,14.571429 4,0" /><path
         inkscape:connector-curvature="0"
         id="path270"
         style="fill:#000000;fill-opacity:1;fill-rule:nonzero;stroke:#000000;stroke-width:0.5;stroke-linecap:butt;stroke-linejoin:round;stroke-miterlimit:10;stroke-dasharray:none;stroke-opacity:1"
         d="m 498,14.571429 -4,0" /></g><g
       id="g276"><g
         clip-path="url(#clipPath280)"
         id="g278"><path
           inkscape:connector-curvature="0"
           id="path284"
           style="fill:none;stroke:#000000;stroke-width:0.5;stroke-linecap:butt;stroke-linejoin:round;stroke-miterlimit:10;stroke-dasharray:1, 3;stroke-dashoffset:0;stroke-opacity:1"
           d="m 22.5,52.653061 475.5,0" /></g></g><g
       id="g286"><path
         inkscape:connector-curvature="0"
         id="path288"
         style="fill:#000000;fill-opacity:1;fill-rule:nonzero;stroke:#000000;stroke-width:0.5;stroke-linecap:butt;stroke-linejoin:round;stroke-miterlimit:10;stroke-dasharray:none;stroke-opacity:1"
         d="m 22.5,52.653061 4,0" /><path
         inkscape:connector-curvature="0"
         id="path290"
         style="fill:#000000;fill-opacity:1;fill-rule:nonzero;stroke:#000000;stroke-width:0.5;stroke-linecap:butt;stroke-linejoin:round;stroke-miterlimit:10;stroke-dasharray:none;stroke-opacity:1"
         d="m 498,52.653061 -4,0" /></g><g
       id="g296"><g
         clip-path="url(#clipPath300)"
         id="g298"><path
           inkscape:connector-curvature="0"
           id="path304"
           style="fill:none;stroke:#000000;stroke-width:0.5;stroke-linecap:butt;stroke-linejoin:round;stroke-miterlimit:10;stroke-dasharray:1, 3;stroke-dashoffset:0;stroke-opacity:1"
           d="m 22.5,90.734694 475.5,0" /></g></g><g
       id="g306"><path
         inkscape:connector-curvature="0"
         id="path308"
         style="fill:#000000;fill-opacity:1;fill-rule:nonzero;stroke:#000000;stroke-width:0.5;stroke-linecap:butt;stroke-linejoin:round;stroke-miterlimit:10;stroke-dasharray:none;stroke-opacity:1"
         d="m 22.5,90.734694 4,0" /><path
         inkscape:connector-curvature="0"
         id="path310"
         style="fill:#000000;fill-opacity:1;fill-rule:nonzero;stroke:#000000;stroke-width:0.5;stroke-linecap:butt;stroke-linejoin:round;stroke-miterlimit:10;stroke-dasharray:none;stroke-opacity:1"
         d="m 498,90.734694 -4,0" /></g><g
       id="g316"><g
         clip-path="url(#clipPath320)"
         id="g318"><path
           inkscape:connector-curvature="0"
           id="path324"
           style="fill:none;stroke:#000000;stroke-width:0.5;stroke-linecap:butt;stroke-linejoin:round;stroke-miterlimit:10;stroke-dasharray:1, 3;stroke-dashoffset:0;stroke-opacity:1"
           d="m 22.5,128.81633 475.5,0" /></g></g><g
       id="g326"><path
         inkscape:connector-curvature="0"
         id="path328"
         style="fill:#000000;fill-opacity:1;fill-rule:nonzero;stroke:#000000;stroke-width:0.5;stroke-linecap:butt;stroke-linejoin:round;stroke-miterlimit:10;stroke-dasharray:none;stroke-opacity:1"
         d="m 22.5,128.81633 4,0" /><path
         inkscape:connector-curvature="0"
         id="path330"
         style="fill:#000000;fill-opacity:1;fill-rule:nonzero;stroke:#000000;stroke-width:0.5;stroke-linecap:butt;stroke-linejoin:round;stroke-miterlimit:10;stroke-dasharray:none;stroke-opacity:1"
         d="m 498,128.81633 -4,0" /></g><g
       id="g336"><g
         clip-path="url(#clipPath340)"
         id="g338"><path
           inkscape:connector-curvature="0"
           id="path344"
           style="fill:none;stroke:#000000;stroke-width:0.5;stroke-linecap:butt;stroke-linejoin:round;stroke-miterlimit:10;stroke-dasharray:1, 3;stroke-dashoffset:0;stroke-opacity:1"
           d="m 22.5,166.89796 475.5,0" /></g></g><g
       id="g346"><path
         inkscape:connector-curvature="0"
         id="path348"
         style="fill:#000000;fill-opacity:1;fill-rule:nonzero;stroke:#000000;stroke-width:0.5;stroke-linecap:butt;stroke-linejoin:round;stroke-miterlimit:10;stroke-dasharray:none;stroke-opacity:1"
         d="m 22.5,166.89796 4,0" /><path
         inkscape:connector-curvature="0"
         id="path350"
         style="fill:#000000;fill-opacity:1;fill-rule:nonzero;stroke:#000000;stroke-width:0.5;stroke-linecap:butt;stroke-linejoin:round;stroke-miterlimit:10;stroke-dasharray:none;stroke-opacity:1"
         d="m 498,166.89796 -4,0" /></g><g
       id="g356"><g
         clip-path="url(#clipPath360)"
         id="g358"><path
           inkscape:connector-curvature="0"
           id="path364"
           style="fill:none;stroke:#000000;stroke-width:0.5;stroke-linecap:butt;stroke-linejoin:round;stroke-miterlimit:10;stroke-dasharray:1, 3;stroke-dashoffset:0;stroke-opacity:1"
           d="m 22.5,204.97959 475.5,0" /></g></g><g
       id="g366"><path
         inkscape:connector-curvature="0"
         id="path368"
         style="fill:#000000;fill-opacity:1;fill-rule:nonzero;stroke:#000000;stroke-width:0.5;stroke-linecap:butt;stroke-linejoin:round;stroke-miterlimit:10;stroke-dasharray:none;stroke-opacity:1"
         d="m 22.5,204.97959 4,0" /><path
         inkscape:connector-curvature="0"
         id="path370"
         style="fill:#000000;fill-opacity:1;fill-rule:nonzero;stroke:#000000;stroke-width:0.5;stroke-linecap:butt;stroke-linejoin:round;stroke-miterlimit:10;stroke-dasharray:none;stroke-opacity:1"
         d="m 498,204.97959 -4,0" /></g><g
       id="g376"><g
         clip-path="url(#clipPath380)"
         id="g378"><path
           inkscape:connector-curvature="0"
           id="path384"
           style="fill:none;stroke:#000000;stroke-width:0.5;stroke-linecap:butt;stroke-linejoin:round;stroke-miterlimit:10;stroke-dasharray:1, 3;stroke-dashoffset:0;stroke-opacity:1"
           d="m 22.5,243.06122 475.5,0" /></g></g><g
       id="g386"><path
         inkscape:connector-curvature="0"
         id="path388"
         style="fill:#000000;fill-opacity:1;fill-rule:nonzero;stroke:#000000;stroke-width:0.5;stroke-linecap:butt;stroke-linejoin:round;stroke-miterlimit:10;stroke-dasharray:none;stroke-opacity:1"
         d="m 22.5,243.06122 4,0" /><path
         inkscape:connector-curvature="0"
         id="path390"
         style="fill:#000000;fill-opacity:1;fill-rule:nonzero;stroke:#000000;stroke-width:0.5;stroke-linecap:butt;stroke-linejoin:round;stroke-miterlimit:10;stroke-dasharray:none;stroke-opacity:1"
         d="m 498,243.06122 -4,0" /></g><g
       id="g396"><g
         clip-path="url(#clipPath400)"
         id="g398"><path
           inkscape:connector-curvature="0"
           id="path404"
           style="fill:none;stroke:#000000;stroke-width:0.5;stroke-linecap:butt;stroke-linejoin:round;stroke-miterlimit:10;stroke-dasharray:1, 3;stroke-dashoffset:0;stroke-opacity:1"
           d="m 22.5,281.14286 475.5,0" /></g></g><g
       id="g406"><path
         inkscape:connector-curvature="0"
         id="path408"
         style="fill:#000000;fill-opacity:1;fill-rule:nonzero;stroke:#000000;stroke-width:0.5;stroke-linecap:butt;stroke-linejoin:round;stroke-miterlimit:10;stroke-dasharray:none;stroke-opacity:1"
         d="m 22.5,281.14286 4,0" /><path
         inkscape:connector-curvature="0"
         id="path410"
         style="fill:#000000;fill-opacity:1;fill-rule:nonzero;stroke:#000000;stroke-width:0.5;stroke-linecap:butt;stroke-linejoin:round;stroke-miterlimit:10;stroke-dasharray:none;stroke-opacity:1"
         d="m 498,281.14286 -4,0" /></g><g
       transform="matrix(-2.0040976,0,0,-2.0040976,834.97576,310.74245)"
       id="g4542"
       style="opacity:1;fill:#d6d6d6;fill-opacity:1;stroke:#000000;stroke-opacity:1;stroke-width:0.39918216;stroke-miterlimit:5.28660011;stroke-dasharray:none"><g
         style="fill:#d6d6d6;fill-opacity:1;stroke:#000000;stroke-opacity:1;stroke-width:0.39918216;stroke-miterlimit:5.28660011;stroke-dasharray:none"
         id="g4544"
         clip-path="url(#clipPath20)"><path
           d="m 302.03321,4.216361 c 5.43666,0 10.65139,2.160009 14.49569,6.004311 3.8443,3.844301 6.00431,9.059025 6.00431,14.495689 0,5.436663 -2.16001,10.651387 -6.00431,14.495689 -3.8443,3.844301 -9.05903,6.004311 -14.49569,6.004311 -5.43666,0 -10.65139,-2.16001 -14.49569,-6.004311 -3.8443,-3.844302 -6.00431,-9.059026 -6.00431,-14.495689 0,-5.436664 2.16001,-10.651388 6.00431,-14.495689 3.8443,-3.844302 9.05903,-6.004311 14.49569,-6.004311 z"
           style="fill:#d6d6d6;fill-opacity:1;fill-rule:nonzero;stroke:#000000;stroke-width:0.39918216;stroke-linecap:butt;stroke-linejoin:round;stroke-miterlimit:5.28660011;stroke-dasharray:none;stroke-opacity:1"
           id="path4546"
           inkscape:connector-curvature="0" /></g></g><g
       transform="matrix(-2.0040976,0,0,-2.0040976,882.04506,572.08214)"
       id="g4548"
       style="opacity:1;fill:#d6d6d6;fill-opacity:1"><g
         style="fill:#d6d6d6;fill-opacity:1"
         id="g4550"
         clip-path="url(#clipPath30)"><path
           sodipodi:nodetypes="sssccsss"
           d="m 347.78298,260.01835 c 2.78464,0 5.45559,1.10635 7.42462,3.07538 1.96904,1.96903 3.07538,4.63999 3.07538,7.42462 0,2.78463 -1.10634,5.45559 -3.07538,7.42462 -5.49597,0 -9.69484,0 -14.84924,0 -1.96903,-1.96903 -3.07538,-4.63999 -3.07538,-7.42462 0,-2.78463 1.10635,-5.45559 3.07538,-7.42462 1.96903,-1.96903 4.63999,-3.07538 7.42462,-3.07538 z"
           style="fill:#d6d6d6;fill-opacity:1;fill-rule:nonzero;stroke:#000000;stroke-width:0.5;stroke-linecap:butt;stroke-linejoin:round;stroke-miterlimit:10;stroke-dasharray:none;stroke-opacity:1"
           id="path4552"
           inkscape:connector-curvature="0" /></g></g><g
       transform="matrix(-2.0040976,0,0,-2.0040976,564.20204,196.08475)"
       id="g4566"
       style="opacity:1;fill:#d6d6d6;fill-opacity:1"><g
         style="fill:#d6d6d6;fill-opacity:1"
         id="g4568"
         clip-path="url(#clipPath60)"><path
           d="m 70.844627,15.724386 c 1.989023,0 3.896849,0.790247 5.303301,2.196699 1.406451,1.406452 2.196699,3.314278 2.196699,5.303301 0,1.989023 -0.790248,3.896849 -2.196699,5.303301 -1.406452,1.406452 -3.314278,2.196699 -5.303301,2.196699 -1.989023,0 -3.896849,-0.790247 -5.303301,-2.196699 -1.406452,-1.406452 -2.196699,-3.314278 -2.196699,-5.303301 0,-1.989023 0.790247,-3.896849 2.196699,-5.303301 1.406452,-1.406452 3.314278,-2.196699 5.303301,-2.196699 z"
           style="fill:#d6d6d6;fill-opacity:1;fill-rule:nonzero;stroke:#000000;stroke-width:0.5;stroke-linecap:butt;stroke-linejoin:round;stroke-miterlimit:10;stroke-dasharray:none;stroke-opacity:1"
           id="path4570"
           inkscape:connector-curvature="0" /></g></g><g
       transform="matrix(-2.0040976,0,0,-2.0040976,542.836,458.42437)"
       id="g4578"
       style="opacity:1;fill:#d6d6d6;fill-opacity:1;stroke:#000000;stroke-opacity:1;stroke-width:0.39918216;stroke-miterlimit:5.28660011;stroke-dasharray:none"><g
         style="fill:#d6d6d6;fill-opacity:1;stroke:#000000;stroke-opacity:1;stroke-width:0.39918216;stroke-miterlimit:5.28660011;stroke-dasharray:none"
         id="g4580"
         clip-path="url(#clipPath80)"><path
           d="m 23.228851,153.17289 c 1.989024,0 3.896849,0.79025 5.303301,2.1967 1.406452,1.40645 2.196699,3.31428 2.196699,5.3033 0,1.98903 -0.790247,3.89685 -2.196699,5.3033 -1.406452,1.40646 -3.314277,2.1967 -5.303301,2.1967 -1.989023,0 -3.896849,-0.79024 -5.303301,-2.1967 -1.406451,-1.40645 -2.196699,-3.31427 -2.196699,-5.3033 0,-1.98902 0.790248,-3.89685 2.196699,-5.3033 1.406452,-1.40645 3.314278,-2.1967 5.303301,-2.1967 z"
           style="fill:#d6d6d6;fill-opacity:1;fill-rule:nonzero;stroke:#000000;stroke-width:0.39918216;stroke-linecap:butt;stroke-linejoin:round;stroke-miterlimit:5.28660011;stroke-dasharray:none;stroke-opacity:1"
           id="path4582"
           inkscape:connector-curvature="0" /></g></g><g
       transform="matrix(-2.0040976,0,0,-2.0040976,849.76898,474.74355)"
       id="g4584"
       style="opacity:1;fill:#ffffff;fill-opacity:1;stroke-width:1.19754648;stroke-miterlimit:10;stroke-dasharray:none"><g
         style="fill:#ffffff;fill-opacity:1;stroke-width:1.19754648;stroke-miterlimit:10;stroke-dasharray:none"
         id="g4586"
         clip-path="url(#clipPath90)"><path
           d="m 314.10265,173.71372 c 1.32602,0 2.5979,0.52683 3.53553,1.46446 0.93764,0.93764 1.46447,2.20952 1.46447,3.53554 0,1.32601 -0.52683,2.59789 -1.46447,3.53553 -0.93763,0.93763 -2.20951,1.46447 -3.53553,1.46447 -1.32602,0 -2.5979,-0.52684 -3.53553,-1.46447 -0.93764,-0.93764 -1.46447,-2.20952 -1.46447,-3.53553 0,-1.32602 0.52683,-2.5979 1.46447,-3.53554 0.93763,-0.93763 2.20951,-1.46446 3.53553,-1.46446 z"
           style="fill:#ffffff;fill-opacity:1;fill-rule:nonzero;stroke:#000000;stroke-width:1.19754648;stroke-linecap:butt;stroke-linejoin:round;stroke-miterlimit:10;stroke-dasharray:none;stroke-opacity:1"
           id="path4588"
           inkscape:connector-curvature="0" /></g></g><g
       transform="matrix(-2.0040976,0,0,-2.0040976,779.83745,430.36392)"
       id="g4590"
       style="opacity:1;fill:#000000;fill-opacity:1"><g
         style="fill:#000000;fill-opacity:1"
         id="g4592"
         clip-path="url(#clipPath100)"><path
           d="m 243.95638,128.607 c 1.32601,0 2.5979,0.52683 3.53553,1.46446 0.93763,0.93764 1.46447,2.20952 1.46447,3.53554 0,1.32601 -0.52684,2.5979 -1.46447,3.53553 -0.93763,0.93764 -2.20952,1.46447 -3.53553,1.46447 -1.32602,0 -2.5979,-0.52683 -3.53554,-1.46447 -0.93763,-0.93763 -1.46446,-2.20952 -1.46446,-3.53553 0,-1.32602 0.52683,-2.5979 1.46446,-3.53554 0.93764,-0.93763 2.20952,-1.46446 3.53554,-1.46446 z"
           style="fill:#000000;fill-opacity:1;fill-rule:nonzero;stroke:#000000;stroke-width:0.5;stroke-linecap:butt;stroke-linejoin:round;stroke-miterlimit:10;stroke-dasharray:none;stroke-opacity:1"
           id="path4594"
           inkscape:connector-curvature="0" /></g></g><g
       transform="matrix(0.84260673,0,0,-0.95167642,60.384325,352.90052)"
       id="g5304"><g
         style="font-style:normal;font-variant:normal;font-weight:normal;font-stretch:normal;letter-spacing:normal;word-spacing:normal;text-anchor:start;fill:none;fill-opacity:1;fill-rule:evenodd;stroke:#000000;stroke-linecap:butt;stroke-linejoin:miter;stroke-miterlimit:10.43299961;stroke-dasharray:none;stroke-dashoffset:0;stroke-opacity:1"
         id="content"
         transform="matrix(0.51428571,0,0,-0.51428571,-90,472.5)"
         xml:space="preserve"
         stroke-miterlimit="10.433"
         font-style="normal"
         font-variant="normal"
         font-weight="normal"
         font-stretch="normal"
         font-size-adjust="none"
         letter-spacing="normal"
         word-spacing="normal"><path
           style="fill:#000000;stroke-width:0"
           inkscape:connector-curvature="0"
           d="m 475.73,424.93 -0.15,0 -0.15,0 -0.14,0 -0.14,-0.01 -0.14,-0.01 -0.14,-0.02 -0.07,-0.01 -0.07,-0.01 -0.07,-0.01 -0.07,-0.02 -0.06,-0.01 -0.07,-0.02 -0.07,-0.03 -0.07,-0.02 -0.06,-0.03 -0.07,-0.03 -0.07,-0.03 -0.06,-0.04 -0.07,-0.03 -0.06,-0.05 -0.07,-0.04 -0.06,-0.05 -0.07,-0.05 -0.06,-0.06 -0.07,-0.06 -0.06,-0.06 c -0.8,-0.75 -0.9,-1.59 -0.9,-1.94 0,-1.2 0.9,-1.74 1.84,-1.74 1.45,0 2.79,1.19 2.79,3.18 0,2.45 -2.34,4.29 -5.88,4.29 -6.72,0 -13.35,-7.13 -13.35,-14.15 0,-4.48 2.89,-8.42 8.07,-8.42 7.12,0 11.31,5.28 11.31,5.88 0,0.3 -0.3,0.65 -0.6,0.65 -0.25,0 -0.35,-0.1 -0.64,-0.5 -3.94,-4.93 -9.37,-4.93 -9.97,-4.93 -3.14,0 -4.48,2.44 -4.48,5.43 0,2.04 1,6.87 2.69,9.96 1.54,2.84 4.28,4.98 7.02,4.98 1.7,0 3.59,-0.65 4.29,-1.99 z"
           id="path5307" /><path
           style="fill:#000000;stroke-width:0"
           inkscape:connector-curvature="0"
           d="m 492.13,401.82 -0.01,-0.06 -0.02,-0.07 -0.02,-0.07 -0.02,-0.08 -0.02,-0.07 -0.02,-0.08 -0.04,-0.16 -0.04,-0.16 -0.04,-0.16 -0.04,-0.16 -0.02,-0.07 -0.02,-0.08 -0.02,-0.08 -0.01,-0.07 -0.02,-0.07 -0.02,-0.07 -0.01,-0.07 -0.02,-0.06 -0.01,-0.06 -0.01,-0.06 -0.01,-0.05 -0.02,-0.05 0,-0.04 -0.01,-0.04 -0.01,-0.04 0,-0.03 0,-0.02 -0.01,-0.02 c 0,-0.77 0.63,-1.12 1.19,-1.12 0.63,0 1.19,0.46 1.36,0.77 0.17,0.31 0.45,1.43 0.63,2.16 0.17,0.66 0.56,2.27 0.77,3.14 0.2,0.76 0.41,1.53 0.59,2.33 0.38,1.5 0.38,1.57 1.08,2.65 1.12,1.71 2.86,3.7 5.58,3.7 1.95,0 2.05,-1.6 2.05,-2.44 0,-2.09 -1.5,-5.96 -2.05,-7.43 -0.39,-0.97 -0.52,-1.29 -0.52,-1.88 0,-1.85 1.53,-3 3.31,-3 3.48,0 5.02,4.81 5.02,5.33 0,0.46 -0.45,0.46 -0.56,0.46 -0.49,0 -0.52,-0.21 -0.66,-0.59 -0.81,-2.79 -2.3,-4.22 -3.7,-4.22 -0.73,0 -0.87,0.49 -0.87,1.22 0,0.8 0.18,1.25 0.8,2.82 0.42,1.08 1.85,4.78 1.85,6.73 0,0.56 0,2.03 -1.29,3.04 -0.59,0.45 -1.6,0.94 -3.24,0.94 -3.14,0 -5.06,-2.06 -6.18,-3.52 -0.27,2.96 -2.75,3.52 -4.53,3.52 -2.89,0 -4.84,-1.78 -5.89,-3.18 -0.24,2.41 -2.3,3.18 -3.73,3.18 -1.5,0 -2.3,-1.08 -2.76,-1.88 -0.76,-1.3 -1.25,-3.29 -1.25,-3.46 0,-0.45 0.49,-0.45 0.59,-0.45 0.49,0 0.52,0.11 0.77,1.05 0.52,2.05 1.18,3.76 2.54,3.76 0.91,0 1.16,-0.77 1.16,-1.71 0,-0.66 -0.32,-1.95 -0.56,-2.89 -0.25,-0.94 -0.6,-2.37 -0.77,-3.14 l -1.12,-4.46 c -0.14,-0.46 -0.34,-1.33 -0.34,-1.43 0,-0.77 0.62,-1.12 1.18,-1.12 0.63,0 1.19,0.46 1.36,0.77 0.17,0.31 0.45,1.43 0.63,2.16 0.17,0.66 0.56,2.27 0.76,3.14 0.21,0.76 0.43,1.53 0.6,2.33 0.38,1.43 0.45,1.71 1.46,3.14 0.98,1.4 2.62,3.21 5.23,3.21 2.03,0 2.06,-1.78 2.06,-2.44 0,-0.87 -0.1,-1.32 -0.59,-3.28 z"
           id="path5309" /></g></g><g
       id="g5785"
       transform="matrix(-1,0,0,0.99593655,425.61739,-111.63776)"><g
         word-spacing="normal"
         letter-spacing="normal"
         font-size-adjust="none"
         font-stretch="normal"
         font-weight="normal"
         font-variant="normal"
         font-style="normal"
         stroke-miterlimit="10.433"
         xml:space="preserve"
         transform="matrix(-0.51428571,0,0,0.51428571,400.48971,50.832004)"
         id="g5787"
         style="font-style:normal;font-variant:normal;font-weight:normal;font-stretch:normal;letter-spacing:normal;word-spacing:normal;text-anchor:start;fill:none;fill-opacity:1;fill-rule:evenodd;stroke:#000000;stroke-linecap:butt;stroke-linejoin:miter;stroke-miterlimit:10.43299961;stroke-dasharray:none;stroke-dashoffset:0;stroke-opacity:1"><path
           id="path5789"
           d="m 475.73,424.93 -0.15,0 -0.15,0 -0.14,0 -0.14,-0.01 -0.14,-0.01 -0.14,-0.02 -0.07,-0.01 -0.07,-0.01 -0.07,-0.01 -0.07,-0.02 -0.06,-0.01 -0.07,-0.02 -0.07,-0.03 -0.07,-0.02 -0.06,-0.03 -0.07,-0.03 -0.07,-0.03 -0.06,-0.04 -0.07,-0.03 -0.06,-0.05 -0.07,-0.04 -0.06,-0.05 -0.07,-0.05 -0.06,-0.06 -0.07,-0.06 -0.06,-0.06 c -0.8,-0.75 -0.9,-1.59 -0.9,-1.94 0,-1.2 0.9,-1.74 1.84,-1.74 1.45,0 2.79,1.19 2.79,3.18 0,2.45 -2.34,4.29 -5.88,4.29 -6.72,0 -13.35,-7.13 -13.35,-14.15 0,-4.48 2.89,-8.42 8.07,-8.42 7.12,0 11.31,5.28 11.31,5.88 0,0.3 -0.3,0.65 -0.6,0.65 -0.25,0 -0.35,-0.1 -0.64,-0.5 -3.94,-4.93 -9.37,-4.93 -9.97,-4.93 -3.14,0 -4.48,2.44 -4.48,5.43 0,2.04 1,6.87 2.69,9.96 1.54,2.84 4.28,4.98 7.02,4.98 1.7,0 3.59,-0.65 4.29,-1.99 z"
           inkscape:connector-curvature="0"
           style="fill:#000000;stroke-width:0" /><path
           id="path5791"
           d="m 495.55,411.87 0.01,0.05 0.02,0.04 0.01,0.05 0.01,0.04 0.01,0.04 0.01,0.04 0,0.03 0.01,0.04 0.01,0.03 0.01,0.03 0,0.03 0.01,0.03 0,0.03 0.01,0.02 0,0.02 0,0.03 0.01,0.02 0,0.02 0,0.01 0,0.02 0.01,0.01 0,0.02 0,0.01 0,0.01 0,0.01 0,0.01 0,0.01 0,0.01 0,0 0,0.01 0,0 0,0.01 c 0,0.77 -0.63,1.11 -1.19,1.11 -0.8,0 -1.46,-0.66 -1.6,-1.32 -0.59,0.94 -1.78,1.99 -3.59,1.99 l 0,-0.98 c 2.44,0 3.1,-2.61 3.1,-2.96 0,-0.07 0,-0.14 -0.1,-0.53 l -1.57,-6.27 c -0.14,-0.53 -0.14,-0.6 -0.73,-1.29 -1.22,-1.47 -2.9,-2.37 -4.22,-2.37 -1.78,0 -2.62,1.5 -2.62,3.31 0,1.53 0.94,5.44 1.85,6.97 1.46,2.44 3.1,3.14 4.29,3.14 l 0,0.98 c -4.36,0 -8.93,-4.68 -8.93,-9.66 0,-3.59 2.44,-5.72 5.3,-5.72 1.61,0 3.14,0.8 4.36,1.88 l -0.77,-3.13 c -0.38,-1.47 -0.63,-2.41 -1.95,-3.6 -1.53,-1.29 -3.03,-1.29 -3.91,-1.29 -1.6,0 -2.05,0.11 -2.68,0.25 0.87,0.42 1.12,1.25 1.12,1.74 0,0.84 -0.67,1.29 -1.36,1.29 -0.98,0 -1.99,-0.8 -1.99,-2.12 0,-2.1 3,-2.13 4.95,-2.13 5.48,0 7.81,2.79 8.3,4.77 z"
           inkscape:connector-curvature="0"
           style="fill:#000000;stroke-width:0" /></g></g><g
       transform="matrix(0.42486866,0,0,0.50030659,282.76057,-53.968791)"
       id="g6575"
       style="font-style:normal;font-variant:normal;font-weight:normal;font-stretch:normal;letter-spacing:normal;word-spacing:normal;text-anchor:start;fill:none;fill-opacity:1;fill-rule:evenodd;stroke:#000000;stroke-linecap:butt;stroke-linejoin:miter;stroke-miterlimit:10.43299961;stroke-dasharray:none;stroke-dashoffset:0;stroke-opacity:1"><path
         id="path6279"
         d="m 451.85657,330.51145 0.06,-0.19 0.06,-0.19 0.07,-0.18 0.07,-0.17 0.09,-0.17 0.08,-0.17 0.1,-0.16 0.1,-0.15 0.1,-0.15 0.11,-0.15 0.12,-0.14 0.12,-0.13 0.13,-0.13 0.13,-0.13 0.14,-0.11 0.14,-0.12 0.15,-0.1 0.15,-0.1 0.16,-0.09 0.16,-0.09 0.16,-0.08 0.17,-0.07 0.17,-0.07 0.18,-0.06 0.18,-0.06 0.18,-0.04 0.19,-0.04 0.18,-0.04 0.2,-0.02 0.19,-0.02 0.2,-0.01 0.2,-0.01 c 1.74,0 2.89,1.15 3.68,2.74 0.85,1.79 1.5,4.83 1.5,4.93 0,0.5 -0.45,0.5 -0.6,0.5 -0.5,0 -0.55,-0.2 -0.7,-0.89 -0.7,-2.8 -1.64,-6.18 -3.73,-6.18 -1.05,0 -1.55,0.65 -1.55,2.29 0,1.09 0.6,3.44 1,5.18 l 1.39,5.38 c 0.16,0.75 0.65,2.64 0.85,3.39 0.25,1.14 0.75,3.03 0.75,3.33 0,0.9 -0.7,1.35 -1.44,1.35 -0.25,0 -1.55,-0.05 -1.95,-1.74 -0.95,-3.64 -3.14,-12.36 -3.73,-15 -0.05,-0.2 -2.05,-4.18 -5.68,-4.18 -2.59,0 -3.09,2.24 -3.09,4.08 0,2.79 1.39,6.73 2.69,10.16 0.6,1.5 0.85,2.19 0.85,3.14 0,2.25 -1.6,4.09 -4.09,4.09 -4.73,0 -6.57,-7.23 -6.57,-7.67 0,-0.5 0.49,-0.5 0.59,-0.5 0.5,0 0.55,0.1 0.8,0.9 1.25,4.33 3.14,6.17 5.03,6.17 0.45,0 1.25,-0.05 1.25,-1.64 0,-1.2 -0.55,-2.64 -0.85,-3.39 -1.84,-4.93 -2.89,-8.02 -2.89,-10.46 0,-4.73 3.44,-5.98 6.13,-5.98 3.28,0 5.08,2.25 5.92,3.34 z"
         inkscape:connector-curvature="0"
         style="fill:#000000;stroke-width:0" /><path
         id="path6281"
         d="m 474.10657,342.90145 0,0.04 0,0.04 0,0.04 0,0.04 0,0.04 0,0.04 0,0.03 0,0.04 -0.01,0.03 0,0.03 0,0.04 0,0.03 -0.01,0.02 0,0.03 0,0.03 -0.01,0.03 0,0.02 0,0.02 -0.02,0.05 -0.01,0.04 -0.01,0.04 -0.02,0.03 -0.02,0.03 -0.02,0.03 -0.03,0.03 -0.02,0.02 -0.03,0.02 -0.04,0.02 -0.03,0.01 -0.04,0.01 -0.05,0.02 -0.05,0 -0.02,0.01 -0.03,0 -0.03,0.01 -0.02,0 -0.03,0 -0.03,0 -0.04,0 -0.03,0.01 -0.03,0 -0.04,0 -0.03,0 -0.04,0 -0.04,0 -0.04,0 -0.04,0 -0.04,0 -0.05,0 -0.04,0 c -2.24,-2.19 -5.41,-2.23 -6.84,-2.23 l 0,-1.25 c 0.84,0 3.14,0 5.06,0.97 l 0,-17.78 c 0,-1.15 0,-1.61 -3.49,-1.61 l -1.33,0 0,-1.25 12.45,0 0,1.25 -1.32,0 c -3.49,0 -3.49,0.46 -3.49,1.61 z"
         inkscape:connector-curvature="0"
         style="fill:#000000;stroke-width:0" /></g><g
       transform="matrix(0.39601846,0,0,0.46633387,-321.54079,193.71934)"
       id="g6563"
       style="font-style:normal;font-variant:normal;font-weight:normal;font-stretch:normal;letter-spacing:normal;word-spacing:normal;text-anchor:start;fill:none;fill-opacity:1;fill-rule:evenodd;stroke:#000000;stroke-linecap:butt;stroke-linejoin:miter;stroke-miterlimit:10.43299961;stroke-dasharray:none;stroke-dashoffset:0;stroke-opacity:1"><path
         id="path6283"
         d="m 1071.2643,136.75815 0.06,-0.19 0.06,-0.19 0.07,-0.18 0.07,-0.17 0.09,-0.17 0.08,-0.17 0.1,-0.16 0.1,-0.15 0.1,-0.15 0.11,-0.15 0.12,-0.14 0.12,-0.13 0.13,-0.13 0.13,-0.13 0.14,-0.11 0.14,-0.12 0.15,-0.1 0.15,-0.1 0.16,-0.09 0.16,-0.09 0.16,-0.08 0.17,-0.07 0.17,-0.07 0.18,-0.06 0.18,-0.06 0.18,-0.04 0.19,-0.04 0.18,-0.04 0.2,-0.02 0.19,-0.02 0.2,-0.01 0.2,-0.01 c 1.74,0 2.89,1.15 3.68,2.74 0.85,1.79 1.5,4.83 1.5,4.93 0,0.5 -0.45,0.5 -0.6,0.5 -0.5,0 -0.55,-0.2 -0.7,-0.89 -0.7,-2.8 -1.64,-6.18 -3.73,-6.18 -1.05,0 -1.55,0.65 -1.55,2.29 0,1.09 0.6,3.44 1,5.18 l 1.39,5.38 c 0.16,0.75 0.65,2.64 0.85,3.39 0.25,1.14 0.75,3.03 0.75,3.33 0,0.9 -0.7,1.35 -1.44,1.35 -0.25,0 -1.55,-0.05 -1.95,-1.74 -0.95,-3.64 -3.14,-12.36 -3.73,-15 -0.06,-0.2 -2.05,-4.18 -5.68,-4.18 -2.59,0 -3.09,2.24 -3.09,4.08 0,2.79 1.39,6.73 2.69,10.16 0.59,1.5 0.84,2.19 0.84,3.14 0,2.25 -1.59,4.09 -4.08,4.09 -4.73,0 -6.57,-7.23 -6.57,-7.67 0,-0.5 0.49,-0.5 0.59,-0.5 0.5,0 0.55,0.1 0.8,0.9 1.25,4.33 3.14,6.17 5.03,6.17 0.45,0 1.25,-0.05 1.25,-1.64 0,-1.2 -0.55,-2.64 -0.85,-3.39 -1.84,-4.93 -2.89,-8.02 -2.89,-10.46 0,-4.73 3.44,-5.98 6.13,-5.98 3.28,0 5.08,2.25 5.92,3.34 z"
         inkscape:connector-curvature="0"
         style="fill:#000000;stroke-width:0" /><path
         id="path6285"
         d="m 1100.4443,133.31815 -1.19,0 c -0.1,-0.77 -0.45,-2.83 -0.9,-3.18 -0.28,-0.21 -2.97,-0.21 -3.45,-0.21 l -6.42,0 c 3.66,3.25 4.88,4.22 6.97,5.86 2.58,2.06 4.99,4.22 4.99,7.54 0,4.21 -3.7,6.79 -8.16,6.79 -4.33,0 -7.25,-3.03 -7.25,-6.24 0,-1.78 1.5,-1.95 1.84,-1.95 0.84,0 1.86,0.59 1.86,1.85 0,0.62 -0.25,1.85 -2.06,1.85 1.08,2.47 3.45,3.24 5.09,3.24 3.48,0 5.3,-2.72 5.3,-5.54 0,-3.04 -2.16,-5.45 -3.28,-6.7 l -8.4,-8.3 c -0.35,-0.31 -0.35,-0.38 -0.35,-1.36 l 14.36,0 z"
         inkscape:connector-curvature="0"
         style="fill:#000000;stroke-width:0" /></g><g
       transform="matrix(-2.0040976,0,0,-2.0040976,978.87333,552.04832)"
       id="g4560"
       style="font-style:normal;font-variant:normal;font-weight:normal;font-stretch:normal;letter-spacing:normal;word-spacing:normal;text-anchor:start;opacity:1;fill:#d6d6d6;fill-opacity:1;fill-rule:evenodd;stroke:#000000;stroke-linecap:butt;stroke-linejoin:miter;stroke-miterlimit:5.28660011;stroke-dasharray:none;stroke-dashoffset:0;stroke-opacity:1;stroke-width:0.39918216"><g
         style="fill:#d6d6d6;fill-opacity:1;stroke:#000000;stroke-opacity:1;stroke-width:0.39918216;stroke-miterlimit:5.28660011;stroke-dasharray:none"
         id="g4562"
         clip-path="url(#clipPath50)"><path
           sodipodi:nodetypes="ssccss"
           d="m 443.72806,237.98117 c 9.14951,0 19.8235,5.41451 26.29318,11.88419 6.46968,6.46967 6.6647,13.58492 7.25782,17.87081 l -67.5765,0.23725 c 0,-9.14951 3.16064,-13.41776 9.63031,-19.88743 6.46968,-6.46968 15.24568,-10.10482 24.39519,-10.10482 z"
           style="fill:#d6d6d6;fill-opacity:1;fill-rule:nonzero;stroke:#000000;stroke-width:0.39918216;stroke-linecap:butt;stroke-linejoin:round;stroke-miterlimit:5.28660011;stroke-dasharray:none;stroke-opacity:1"
           id="path4564"
           inkscape:connector-curvature="0" /></g></g><g
       style="font-style:normal;font-variant:normal;font-weight:normal;font-stretch:normal;letter-spacing:normal;word-spacing:normal;text-anchor:start;fill:#000000;fill-opacity:1;fill-rule:evenodd;stroke:#000000;stroke-linecap:butt;stroke-linejoin:miter;stroke-miterlimit:10.43299961;stroke-dasharray:none;stroke-dashoffset:0;stroke-opacity:1"
       transform="matrix(0.96392895,0,0,1.1350802,-1020.0208,-148.86115)"
       id="g6587"><path
         id="path6287"
         d="m 1285.6994,351.05263 0.06,-0.19 0.06,-0.19 0.07,-0.18 0.07,-0.17 0.09,-0.17 0.08,-0.17 0.1,-0.16 0.1,-0.15 0.1,-0.15 0.11,-0.15 0.12,-0.14 0.12,-0.13 0.13,-0.13 0.13,-0.13 0.14,-0.11 0.14,-0.12 0.15,-0.1 0.15,-0.1 0.16,-0.09 0.16,-0.09 0.16,-0.08 0.17,-0.07 0.17,-0.07 0.18,-0.06 0.18,-0.06 0.18,-0.04 0.19,-0.04 0.18,-0.04 0.2,-0.02 0.19,-0.02 0.2,-0.01 0.2,-0.01 c 1.74,0 2.89,1.15 3.68,2.74 0.85,1.79 1.5,4.83 1.5,4.93 0,0.5 -0.45,0.5 -0.6,0.5 -0.5,0 -0.55,-0.2 -0.7,-0.89 -0.7,-2.8 -1.64,-6.18 -3.73,-6.18 -1.05,0 -1.55,0.65 -1.55,2.29 0,1.09 0.6,3.44 1,5.18 l 1.39,5.38 c 0.16,0.75 0.65,2.64 0.85,3.39 0.25,1.14 0.75,3.03 0.75,3.33 0,0.9 -0.7,1.35 -1.44,1.35 -0.25,0 -1.55,-0.05 -1.95,-1.74 -0.95,-3.64 -3.14,-12.36 -3.73,-15 -0.06,-0.2 -2.05,-4.18 -5.68,-4.18 -2.59,0 -3.09,2.24 -3.09,4.08 0,2.79 1.39,6.73 2.69,10.16 0.59,1.5 0.84,2.19 0.84,3.14 0,2.25 -1.59,4.09 -4.08,4.09 -4.73,0 -6.57,-7.23 -6.57,-7.67 0,-0.5 0.49,-0.5 0.59,-0.5 0.5,0 0.55,0.1 0.8,0.9 1.25,4.33 3.14,6.17 5.03,6.17 0.45,0 1.25,-0.05 1.25,-1.64 0,-1.2 -0.55,-2.64 -0.85,-3.39 -1.84,-4.93 -2.89,-8.02 -2.89,-10.46 0,-4.73 3.44,-5.98 6.13,-5.98 3.28,0 5.08,2.25 5.92,3.34 z"
         inkscape:connector-curvature="0"
         style="fill:#000000;fill-opacity:1;stroke-width:0" /><path
         id="path6289"
         d="m 1306.7894,352.90263 0.25,0 0.25,-0.02 0.24,-0.02 0.24,-0.04 0.23,-0.05 0.23,-0.06 0.22,-0.07 0.22,-0.09 0.21,-0.09 0.2,-0.11 0.19,-0.11 0.19,-0.13 0.18,-0.13 0.18,-0.15 0.17,-0.16 0.15,-0.17 0.16,-0.18 0.14,-0.2 0.13,-0.2 0.13,-0.21 0.12,-0.23 0.11,-0.23 0.09,-0.25 0.09,-0.26 0.08,-0.27 0.07,-0.28 0.06,-0.29 0.05,-0.3 0.04,-0.31 0.03,-0.32 0.02,-0.33 0,-0.35 c 0,-4.32 -2.51,-5.61 -4.53,-5.61 -1.39,0 -4.46,0.38 -5.93,2.44 1.64,0.07 2.02,1.22 2.02,1.95 0,1.12 -0.83,1.92 -1.91,1.92 -0.98,0 -1.96,-0.59 -1.96,-2.02 0,-3.28 3.63,-5.41 7.85,-5.41 4.84,0 8.19,3.25 8.19,6.73 0,2.72 -2.23,5.44 -6.07,6.24 3.67,1.33 4.99,3.94 4.99,6.07 0,2.76 -3.17,4.81 -7.04,4.81 -3.87,0 -6.83,-1.88 -6.83,-4.67 0,-1.18 0.76,-1.85 1.81,-1.85 1.08,0 1.77,0.8 1.77,1.78 0,1.01 -0.69,1.75 -1.77,1.81 1.22,1.54 3.62,1.92 4.92,1.92 1.56,0 3.76,-0.76 3.76,-3.8 0,-1.46 -0.49,-3.07 -1.39,-4.15 -1.16,-1.32 -2.13,-1.39 -3.87,-1.5 -0.88,-0.07 -0.95,-0.07 -1.12,-0.1 -0.07,0 -0.35,-0.07 -0.35,-0.46 0,-0.49 0.31,-0.49 0.91,-0.49 z"
         inkscape:connector-curvature="0"
         style="fill:#000000;fill-opacity:1;stroke-width:0" /></g><g
       style="font-style:normal;font-variant:normal;font-weight:normal;font-stretch:normal;letter-spacing:normal;word-spacing:normal;text-anchor:start;fill:#000000;fill-opacity:1;fill-rule:evenodd;stroke:#000000;stroke-linecap:butt;stroke-linejoin:miter;stroke-miterlimit:10.43299961;stroke-dasharray:none;stroke-dashoffset:0;stroke-opacity:1"
       transform="matrix(0.51428571,0,0,0.60560017,-317.09959,-246.64572)"
       id="g6583"><path
         id="path6291"
         d="m 969.29736,455.42403 0.06,-0.19 0.06,-0.19 0.07,-0.18 0.07,-0.17 0.09,-0.17 0.08,-0.17 0.1,-0.16 0.1,-0.15 0.1,-0.15 0.11,-0.15 0.12,-0.14 0.12,-0.13 0.13,-0.13 0.13,-0.13 0.14,-0.11 0.14,-0.12 0.15,-0.1 0.15,-0.1 0.16,-0.09 0.16,-0.09 0.16,-0.08 0.17,-0.07 0.17,-0.07 0.18,-0.06 0.18,-0.06 0.18,-0.04 0.19,-0.04 0.18,-0.04 0.2,-0.02 0.19,-0.02 0.2,-0.01 0.2,-0.01 c 1.74,0 2.89,1.15 3.68,2.74 0.85,1.79 1.5,4.83 1.5,4.93 0,0.5 -0.45,0.5 -0.6,0.5 -0.5,0 -0.55,-0.2 -0.7,-0.89 -0.7,-2.8 -1.64,-6.18 -3.73,-6.18 -1.05,0 -1.55,0.65 -1.55,2.29 0,1.09 0.6,3.44 1,5.18 l 1.39,5.38 c 0.16,0.75 0.65,2.64 0.85,3.39 0.25,1.14 0.75,3.03 0.75,3.33 0,0.9 -0.7,1.35 -1.44,1.35 -0.25,0 -1.55,-0.05 -1.95,-1.74 -0.95,-3.64 -3.14,-12.36 -3.73,-15 -0.06,-0.2 -2.05,-4.18 -5.68,-4.18 -2.59,0 -3.09,2.24 -3.09,4.08 0,2.79 1.39,6.73 2.69,10.16 0.59,1.5 0.84,2.19 0.84,3.14 0,2.25 -1.59,4.09 -4.08,4.09 -4.73,0 -6.57,-7.23 -6.57,-7.67 0,-0.5 0.49,-0.5 0.59,-0.5 0.5,0 0.55,0.1 0.8,0.9 1.25,4.33 3.14,6.17 5.03,6.17 0.45,0 1.25,-0.05 1.25,-1.64 0,-1.2 -0.55,-2.64 -0.85,-3.39 -1.84,-4.93 -2.89,-8.02 -2.89,-10.46 0,-4.73 3.44,-5.98 6.13,-5.98 3.28,0 5.08,2.25 5.92,3.34 z"
         inkscape:connector-curvature="0"
         style="fill:#000000;fill-opacity:1;stroke-width:0" /><path
         id="path6293"
         d="m 999.31736,451.35403 0,1.25 -3.88,0 0,15.56 c 0,0.73 0,0.97 -0.76,0.97 -0.42,0 -0.56,0 -0.91,-0.49 l -11.54,-16.04 0,-1.25 10.25,0 0.24,1.25 -9.2,0 9.2,12.76 0,-12.76 -0.24,-1.25 0,-2.86 c 0,-1.19 0,-1.61 -2.83,-1.61 l -0.94,0 0,-1.25 10.5,0 0,1.25 -0.94,0 c -2.83,0 -2.83,0.42 -2.83,1.61 l 0,2.86 z"
         inkscape:connector-curvature="0"
         style="fill:#000000;fill-opacity:1;stroke-width:0" /></g><g
       transform="matrix(0.45111411,0,0,0.53121208,225.29192,218.19854)"
       id="g6579"
       style="font-style:normal;font-variant:normal;font-weight:normal;font-stretch:normal;letter-spacing:normal;word-spacing:normal;text-anchor:start;fill:none;fill-opacity:1;fill-rule:evenodd;stroke:#000000;stroke-linecap:butt;stroke-linejoin:miter;stroke-miterlimit:10.43299961;stroke-dasharray:none;stroke-dashoffset:0;stroke-opacity:1"><path
         id="path6295"
         d="m 560.06424,75.689769 0.06,-0.19 0.06,-0.19 0.07,-0.18 0.07,-0.17 0.09,-0.17 0.08,-0.17 0.1,-0.16 0.1,-0.15 0.1,-0.15 0.11,-0.15 0.12,-0.14 0.12,-0.13 0.13,-0.13 0.13,-0.13 0.14,-0.11 0.14,-0.12 0.15,-0.1 0.15,-0.1 0.16,-0.09 0.16,-0.09 0.16,-0.08 0.17,-0.07 0.17,-0.07 0.18,-0.06 0.18,-0.06 0.18,-0.04 0.19,-0.04 0.18,-0.04 0.2,-0.02 0.19,-0.02 0.2,-0.01 0.2,-0.01 c 1.74,0 2.89,1.15 3.68,2.74 0.85,1.79 1.5,4.83 1.5,4.93 0,0.5 -0.45,0.5 -0.6,0.5 -0.5,0 -0.55,-0.2 -0.7,-0.89 -0.7,-2.8 -1.64,-6.18 -3.73,-6.18 -1.05,0 -1.55,0.65 -1.55,2.29 0,1.09 0.6,3.44 1,5.18 l 1.39,5.38 c 0.16,0.75 0.65,2.64 0.85,3.39 0.25,1.14 0.75,3.03 0.75,3.33 0,0.9 -0.7,1.35 -1.44,1.35 -0.25,0 -1.55,-0.05 -1.95,-1.74 -0.95,-3.64 -3.14,-12.36 -3.73,-15 -0.06,-0.2 -2.05,-4.18 -5.68,-4.18 -2.59,0 -3.09,2.24 -3.09,4.08 0,2.79 1.39,6.73 2.69,10.16 0.59,1.5 0.84,2.19 0.84,3.14 0,2.25 -1.59,4.09 -4.08,4.09 -4.73,0 -6.57,-7.23 -6.57,-7.67 0,-0.5 0.49,-0.5 0.59,-0.5 0.5,0 0.55,0.1 0.8,0.9 1.25,4.33 3.14,6.17 5.03,6.17 0.45,0 1.25,-0.05 1.25,-1.64 0,-1.2 -0.55,-2.64 -0.85,-3.39 -1.84,-4.93 -2.89,-8.02 -2.89,-10.46 0,-4.73 3.44,-5.98 6.13,-5.98 3.28,0 5.08,2.25 5.92,3.34 z"
         inkscape:connector-curvature="0"
         style="fill:#000000;stroke-width:0" /><path
         id="path6297"
         d="m 577.04424,85.359769 0.16,-0.04 0.16,-0.04 0.16,-0.04 0.15,-0.03 0.15,-0.03 0.14,-0.03 0.14,-0.03 0.14,-0.02 0.13,-0.03 0.13,-0.02 0.12,-0.02 0.12,-0.02 0.12,-0.01 0.11,-0.02 0.11,-0.01 0.1,-0.01 0.11,-0.01 0.09,-0.01 0.1,-0.01 0.09,0 0.09,-0.01 0.08,0 0.08,-0.01 0.08,0 0.08,0 0.07,0 0.07,0 0.06,-0.01 0.07,0 0.06,0 0.05,0 0.05,0 c 4.61,0 7.33,3.14 7.33,3.66 0,0.39 -0.24,0.49 -0.42,0.49 -0.07,0 -0.14,0 -0.28,-0.1 -0.84,-0.32 -2.68,-1.01 -5.26,-1.01 -0.98,0 -2.83,0.07 -5.1,0.94 -0.34,0.17 -0.41,0.17 -0.45,0.17 -0.45,0 -0.45,-0.38 -0.45,-0.94 l 0,-10.28 c 0,-0.6 0,-1.02 0.56,-1.02 0.31,0 0.34,0.07 0.7,0.49 1.49,1.92 3.62,2.2 4.84,2.2 2.09,0 3.03,-1.67 3.21,-1.96 0.63,-1.14 0.84,-2.47 0.84,-4.49 0,-1.05 0,-3.11 -1.05,-4.64 -0.87,-1.26 -2.37,-2.09 -4.08,-2.09 -2.27,0 -4.6,1.25 -5.47,3.56 1.32,-0.11 1.98,0.76 1.98,1.7 0,1.5 -1.28,1.78 -1.74,1.78 -0.07,0 -1.74,0 -1.74,-1.88 0,-3.14 2.85,-6.28 7.04,-6.28 4.46,0 8.37,3.31 8.37,7.71 0,3.94 -3,7.56 -7.33,7.56 -1.53,0 -3.34,-0.38 -4.87,-1.7 z"
         inkscape:connector-curvature="0"
         style="fill:#000000;stroke-width:0" /></g><g
       style="font-style:normal;font-variant:normal;font-weight:normal;font-stretch:normal;letter-spacing:normal;word-spacing:normal;text-anchor:start;fill:#000000;fill-opacity:1;fill-rule:evenodd;stroke:#000000;stroke-linecap:butt;stroke-linejoin:miter;stroke-miterlimit:10.43299961;stroke-dasharray:none;stroke-dashoffset:0;stroke-opacity:1"
       transform="matrix(0.37529019,0,0,0.44192518,197.03257,7.6532779)"
       id="g6571"><path
         id="path6299"
         d="m 591.45203,318.29777 0.06,-0.19 0.06,-0.19 0.07,-0.18 0.07,-0.17 0.09,-0.17 0.08,-0.17 0.1,-0.16 0.1,-0.15 0.1,-0.15 0.11,-0.15 0.12,-0.14 0.12,-0.13 0.13,-0.13 0.13,-0.13 0.14,-0.11 0.14,-0.12 0.15,-0.1 0.15,-0.1 0.16,-0.09 0.16,-0.09 0.16,-0.08 0.17,-0.07 0.17,-0.07 0.18,-0.06 0.18,-0.06 0.18,-0.04 0.19,-0.04 0.18,-0.04 0.2,-0.02 0.19,-0.02 0.2,-0.01 0.2,-0.01 c 1.74,0 2.89,1.15 3.68,2.74 0.85,1.79 1.5,4.83 1.5,4.93 0,0.5 -0.45,0.5 -0.6,0.5 -0.5,0 -0.55,-0.2 -0.7,-0.89 -0.7,-2.8 -1.64,-6.18 -3.73,-6.18 -1.05,0 -1.55,0.65 -1.55,2.29 0,1.09 0.6,3.44 1,5.18 l 1.39,5.38 c 0.16,0.75 0.65,2.64 0.85,3.39 0.25,1.14 0.75,3.03 0.75,3.33 0,0.9 -0.7,1.35 -1.44,1.35 -0.25,0 -1.55,-0.05 -1.95,-1.74 -0.95,-3.64 -3.14,-12.36 -3.73,-15 -0.06,-0.2 -2.05,-4.18 -5.68,-4.18 -2.59,0 -3.09,2.24 -3.09,4.08 0,2.79 1.39,6.73 2.69,10.16 0.59,1.5 0.84,2.19 0.84,3.14 0,2.25 -1.59,4.09 -4.08,4.09 -4.73,0 -6.57,-7.23 -6.57,-7.67 0,-0.5 0.49,-0.5 0.59,-0.5 0.5,0 0.55,0.1 0.8,0.9 1.25,4.33 3.14,6.17 5.03,6.17 0.45,0 1.25,-0.05 1.25,-1.64 0,-1.2 -0.55,-2.64 -0.85,-3.39 -1.84,-4.93 -2.89,-8.02 -2.89,-10.46 0,-4.73 3.44,-5.98 6.13,-5.98 3.28,0 5.08,2.25 5.92,3.34 z"
         inkscape:connector-curvature="0"
         style="fill:#000000;fill-opacity:1;stroke-width:0" /><path
         id="path6301"
         d="m 607.25203,319.90777 0,0.53 0.01,0.53 0.02,0.52 0.03,0.51 0.04,0.51 0.05,0.49 0.06,0.49 0.08,0.48 0.09,0.47 0.11,0.46 0.13,0.46 0.15,0.44 0.08,0.22 0.08,0.22 0.09,0.21 0.1,0.21 0.11,0.21 0.1,0.2 0.12,0.21 0.12,0.2 c 1.18,1.88 3.07,3.17 5.3,3.17 1.05,0 2.44,-0.28 3.14,-1.22 -0.87,-0.07 -1.61,-0.66 -1.61,-1.67 0,-0.87 0.6,-1.64 1.64,-1.64 1.05,0 1.68,0.69 1.68,1.71 0,2.02 -1.47,3.83 -4.92,3.83 -5.02,0 -10.15,-4.6 -10.15,-12.1 0,-9.03 4.26,-11.75 8.09,-11.75 4.26,0 7.95,3.25 7.95,7.81 0,4.43 -3.52,7.71 -7.6,7.71 l -0.17,-0.98 c 1.6,0 2.68,-0.63 3.55,-1.91 0.84,-1.33 0.87,-2.79 0.87,-4.82 0,-1.99 0,-3.45 -0.94,-4.81 -0.83,-1.22 -1.95,-1.88 -3.66,-1.88 l 0,0 c -1.74,0 -3.1,1.01 -3.83,2.54 -0.53,1.05 -0.8,2.79 -0.8,4.88 0,3.39 2.01,6 4.81,6 l 0.17,0.98 c -2.79,0 -4.32,-1.85 -5.09,-3.42 z"
         inkscape:connector-curvature="0"
         style="fill:#000000;fill-opacity:1;stroke-width:0" /></g><g
       style="font-style:normal;font-variant:normal;font-weight:normal;font-stretch:normal;letter-spacing:normal;word-spacing:normal;text-anchor:start;fill:#000000;fill-opacity:1;fill-rule:evenodd;stroke:#000000;stroke-linecap:butt;stroke-linejoin:miter;stroke-miterlimit:10.43299961;stroke-dasharray:none;stroke-dashoffset:0;stroke-opacity:1"
       transform="matrix(0.90050853,0,0,1.0603991,-664.44754,-59.626471)"
       id="g6567"><path
         id="path6303"
         d="m 824.65642,85.318593 0.06,-0.19 0.06,-0.19 0.07,-0.18 0.07,-0.17 0.09,-0.17 0.08,-0.17 0.1,-0.16 0.1,-0.15 0.1,-0.15 0.11,-0.15 0.12,-0.14 0.12,-0.13 0.13,-0.13 0.13,-0.13 0.14,-0.11 0.14,-0.12 0.15,-0.1 0.15,-0.1 0.16,-0.09 0.16,-0.09 0.16,-0.08 0.17,-0.07 0.17,-0.07 0.18,-0.06 0.18,-0.06 0.18,-0.04 0.19,-0.04 0.18,-0.04 0.2,-0.02 0.19,-0.02 0.2,-0.01 0.2,-0.01 c 1.74,0 2.89,1.15 3.68,2.74 0.85,1.79 1.5,4.83 1.5,4.93 0,0.5 -0.45,0.5 -0.6,0.5 -0.5,0 -0.55,-0.2 -0.7,-0.89 -0.7,-2.8 -1.64,-6.18 -3.73,-6.18 -1.05,0 -1.55,0.65 -1.55,2.29 0,1.09 0.6,3.44 1,5.18 l 1.39,5.38 c 0.16,0.75 0.65,2.64 0.85,3.39 0.25,1.139997 0.75,3.029997 0.75,3.329997 0,0.9 -0.7,1.35 -1.44,1.35 -0.25,0 -1.55,-0.05 -1.95,-1.74 -0.95,-3.639997 -3.14,-12.359997 -3.73,-14.999997 -0.06,-0.2 -2.05,-4.18 -5.68,-4.18 -2.59,0 -3.09,2.24 -3.09,4.08 0,2.79 1.39,6.73 2.69,10.16 0.59,1.5 0.84,2.19 0.84,3.139997 0,2.25 -1.59,4.09 -4.08,4.09 -4.73,0 -6.57,-7.229997 -6.57,-7.669997 0,-0.5 0.49,-0.5 0.59,-0.5 0.5,0 0.55,0.1 0.8,0.9 1.25,4.329997 3.14,6.169997 5.03,6.169997 0.45,0 1.25,-0.05 1.25,-1.64 0,-1.2 -0.55,-2.639997 -0.85,-3.389997 -1.84,-4.93 -2.89,-8.02 -2.89,-10.46 0,-4.73 3.44,-5.98 6.13,-5.98 3.28,0 5.08,2.25 5.92,3.34 z"
         inkscape:connector-curvature="0"
         style="fill:#000000;fill-opacity:1;stroke-width:0" /><path
         id="path6305"
         d="m 853.88642,96.588593 0.03,0.04 0.03,0.04 0.02,0.03 0.03,0.04 0.02,0.03 0.03,0.03 0.02,0.03 0.02,0.03 0.01,0.03 0.02,0.03 0.02,0.03 0.01,0.03 0.01,0.03 0.01,0.03 0.01,0.03 0.01,0.04 0.01,0.03 0,0.04 0.01,0.04 0.01,0.04 0,0.04 0,0.05 0.01,0.04 0,0.06 0,0.05 0,0.06 0,0.06 0,0.06 0,0.07 0,0.04 0,0.04 0,0.03 0,0.04 0,0.05 0,0.04 -9.13,0 c -1.4,0 -1.78,0.03 -3.03,0.13 -1.82,0.14 -1.89,0.39 -1.99,0.98 l -1.19,0 -1.22,-7.46 1.18,0 c 0.08,0.52 0.42,2.82 0.98,3.17 0.28,0.21 3.11,0.21 3.63,0.21 l 7.6,0 c -1.11,-1.46 -2.89,-3.62 -3.63,-4.6 -4.56,-6 -4.98,-11.54 -4.98,-13.6 0,-0.38 0,-1.99 1.63,-1.99 1.68,0 1.68,1.57 1.68,2.02 l 0,1.4 c 0,6.76 1.4,9.87 2.9,11.75 z"
         inkscape:connector-curvature="0"
         style="fill:#000000;fill-opacity:1;stroke-width:0" /></g><rect
       transform="scale(1,-1)"
       y="-299.07172"
       x="498.5321"
       height="57.294342"
       width="22.584906"
       id="rect4461"
       style="opacity:1;fill:#ffffff;fill-opacity:1;stroke:none;stroke-width:0.80000001;stroke-linecap:butt;stroke-linejoin:round;stroke-miterlimit:4;stroke-dasharray:none;stroke-dashoffset:0;stroke-opacity:1" /><g
       transform="matrix(-0.75459525,0,0,-0.75459525,177.71858,277.8448)"
       id="g4482"
       style="opacity:1;fill:#d6d6d6;fill-opacity:1;stroke:#000000;stroke-opacity:1;stroke-width:1.060171;stroke-miterlimit:5.28660011;stroke-dasharray:none"><g
         id="g4484"
         clip-path="url(#clipPath60)"
         style="fill:#d6d6d6;fill-opacity:1;stroke:#000000;stroke-opacity:1;stroke-width:1.060171;stroke-miterlimit:5.28660011;stroke-dasharray:none"><path
           d="m 70.844627,15.724386 c 1.989023,0 3.896849,0.790247 5.303301,2.196699 1.406451,1.406452 2.196699,3.314278 2.196699,5.303301 0,1.989023 -0.790248,3.896849 -2.196699,5.303301 -1.406452,1.406452 -3.314278,2.196699 -5.303301,2.196699 -1.989023,0 -3.896849,-0.790247 -5.303301,-2.196699 -1.406452,-1.406452 -2.196699,-3.314278 -2.196699,-5.303301 0,-1.989023 0.790247,-3.896849 2.196699,-5.303301 1.406452,-1.406452 3.314278,-2.196699 5.303301,-2.196699 z"
           style="fill:#d6d6d6;fill-opacity:1;fill-rule:nonzero;stroke:#000000;stroke-width:1.060171;stroke-linecap:butt;stroke-linejoin:round;stroke-miterlimit:5.28660011;stroke-dasharray:none;stroke-opacity:1"
           id="path4486"
           inkscape:connector-curvature="0" /></g></g></g></svg>